<svg width="21" height="16" viewBox="0 0 21 16" fill="none" xmlns="http://www.w3.org/2000/svg">
<path d="M2.25 16C1.7 16 1.22933 15.8043 0.838 15.413C0.446667 15.0217 0.250667 14.5507 0.25 14V2C0.25 1.45 0.446 0.979333 0.838 0.588C1.23 0.196666 1.70067 0.000666667 2.25 0H18.25C18.8 0 19.271 0.196 19.663 0.588C20.055 0.98 20.2507 1.45067 20.25 2V14C20.25 14.55 20.0543 15.021 19.663 15.413C19.2717 15.805 18.8007 16.0007 18.25 16H2.25ZM10.25 9L2.25 4V14H18.25V4L10.25 9ZM10.25 7L18.25 2H2.25L10.25 7ZM2.25 4V2V14V4Z" fill="#AA1F18"/>
</svg>
