<svg width="20" height="15" viewBox="0 0 20 15" fill="none" xmlns="http://www.w3.org/2000/svg">
<path d="M1.51963 6.64218C0.967345 6.64218 0.519628 7.08989 0.519627 7.64217C0.519626 8.19446 0.96734 8.64218 1.51962 8.64218L1.51963 6.64218ZM19.2626 8.34933C19.6531 7.9588 19.6531 7.32564 19.2626 6.93511L12.8987 0.571137C12.5081 0.180612 11.875 0.18061 11.4844 0.571133C11.0939 0.961657 11.0939 1.59482 11.4844 1.98535L17.1413 7.64222L11.4844 13.2991C11.0939 13.6896 11.0939 14.3227 11.4844 14.7133C11.8749 15.1038 12.5081 15.1038 12.8986 14.7133L19.2626 8.34933ZM1.51962 8.64218L18.5555 8.64222L18.5555 6.64222L1.51963 6.64218L1.51962 8.64218Z" fill="white"/>
</svg>
