<svg width="41" height="40" viewBox="0 0 41 40" fill="none" xmlns="http://www.w3.org/2000/svg">
<path d="M12.2206 0H29.0206C35.4206 0 40.6206 5.2 40.6206 11.6V28.4C40.6206 31.4765 39.3985 34.427 37.223 36.6024C35.0476 38.7779 32.0971 40 29.0206 40H12.2206C5.82061 40 0.620605 34.8 0.620605 28.4V11.6C0.620605 8.52349 1.84275 5.57298 4.01817 3.39756C6.19359 1.22214 9.14409 0 12.2206 0ZM11.8206 4C9.91105 4 8.0797 4.75857 6.72944 6.10883C5.37918 7.45909 4.62061 9.29044 4.62061 11.2V28.8C4.62061 32.78 7.84061 36 11.8206 36H29.4206C31.3302 36 33.1615 35.2414 34.5118 33.8912C35.862 32.5409 36.6206 30.7096 36.6206 28.8V11.2C36.6206 7.22 33.4006 4 29.4206 4H11.8206ZM31.1206 7C31.7836 7 32.4195 7.26339 32.8884 7.73223C33.3572 8.20107 33.6206 8.83696 33.6206 9.5C33.6206 10.163 33.3572 10.7989 32.8884 11.2678C32.4195 11.7366 31.7836 12 31.1206 12C30.4576 12 29.8217 11.7366 29.3528 11.2678C28.884 10.7989 28.6206 10.163 28.6206 9.5C28.6206 8.83696 28.884 8.20107 29.3528 7.73223C29.8217 7.26339 30.4576 7 31.1206 7ZM20.6206 10C23.2728 10 25.8163 11.0536 27.6917 12.9289C29.567 14.8043 30.6206 17.3478 30.6206 20C30.6206 22.6522 29.567 25.1957 27.6917 27.0711C25.8163 28.9464 23.2728 30 20.6206 30C17.9684 30 15.4249 28.9464 13.5495 27.0711C11.6742 25.1957 10.6206 22.6522 10.6206 20C10.6206 17.3478 11.6742 14.8043 13.5495 12.9289C15.4249 11.0536 17.9684 10 20.6206 10ZM20.6206 14C19.0293 14 17.5032 14.6321 16.378 15.7574C15.2527 16.8826 14.6206 18.4087 14.6206 20C14.6206 21.5913 15.2527 23.1174 16.378 24.2426C17.5032 25.3679 19.0293 26 20.6206 26C22.2119 26 23.738 25.3679 24.8632 24.2426C25.9885 23.1174 26.6206 21.5913 26.6206 20C26.6206 18.4087 25.9885 16.8826 24.8632 15.7574C23.738 14.6321 22.2119 14 20.6206 14Z" fill="white"/>
</svg>
