<svg width="58" height="40" viewBox="0 0 58 40" fill="none" xmlns="http://www.w3.org/2000/svg">
<path d="M23.7143 28.5714L38.5429 20L23.7143 11.4286V28.5714ZM56.7429 6.2C57.1143 7.54286 57.3715 9.34286 57.5429 11.6286C57.7429 13.9143 57.8286 15.8857 57.8286 17.6L58 20C58 26.2571 57.5429 30.8571 56.7429 33.8C56.0286 36.3714 54.3715 38.0286 51.8 38.7429C50.4572 39.1143 48 39.3714 44.2286 39.5429C40.5143 39.7429 37.1143 39.8286 33.9715 39.8286L29.4286 40C17.4572 40 10 39.5429 7.05718 38.7429C4.48575 38.0286 2.82861 36.3714 2.11432 33.8C1.74289 32.4571 1.48575 30.6571 1.31432 28.3714C1.11432 26.0857 1.02861 24.1143 1.02861 22.4L0.857178 20C0.857178 13.7429 1.31432 9.14286 2.11432 6.2C2.82861 3.62857 4.48575 1.97143 7.05718 1.25714C8.40003 0.885714 10.8572 0.628571 14.6286 0.457142C18.3429 0.257142 21.7429 0.171428 24.8857 0.171428L29.4286 0C41.4 0 48.8572 0.457143 51.8 1.25714C54.3715 1.97143 56.0286 3.62857 56.7429 6.2Z" fill="white"/>
</svg>
