<svg width="25" height="25" viewBox="0 0 25 25" fill="none" xmlns="http://www.w3.org/2000/svg">
<mask id="path-1-inside-1_679_512" fill="white">
<path fill-rule="evenodd" clip-rule="evenodd" d="M1.0713 0.663587C1.32097 0.41423 1.6594 0.27417 2.01227 0.27417C2.36513 0.27417 2.70356 0.41423 2.95323 0.663587L24.2581 21.9684C24.3889 22.0903 24.4938 22.2373 24.5666 22.4007C24.6394 22.564 24.6785 22.7403 24.6817 22.9191C24.6848 23.0979 24.6519 23.2755 24.585 23.4413C24.518 23.6071 24.4183 23.7577 24.2919 23.8842C24.1654 24.0106 24.0148 24.1103 23.849 24.1773C23.6832 24.2442 23.5056 24.2771 23.3268 24.274C23.1481 24.2708 22.9717 24.2317 22.8084 24.1589C22.6451 24.0861 22.4981 23.9812 22.3762 23.8504L1.0713 2.54552C0.821945 2.29585 0.681885 1.95741 0.681885 1.60455C0.681885 1.25169 0.821945 0.913254 1.0713 0.663587Z"/>
</mask>
<path fill-rule="evenodd" clip-rule="evenodd" d="M1.0713 0.663587C1.32097 0.41423 1.6594 0.27417 2.01227 0.27417C2.36513 0.27417 2.70356 0.41423 2.95323 0.663587L24.2581 21.9684C24.3889 22.0903 24.4938 22.2373 24.5666 22.4007C24.6394 22.564 24.6785 22.7403 24.6817 22.9191C24.6848 23.0979 24.6519 23.2755 24.585 23.4413C24.518 23.6071 24.4183 23.7577 24.2919 23.8842C24.1654 24.0106 24.0148 24.1103 23.849 24.1773C23.6832 24.2442 23.5056 24.2771 23.3268 24.274C23.1481 24.2708 22.9717 24.2317 22.8084 24.1589C22.6451 24.0861 22.4981 23.9812 22.3762 23.8504L1.0713 2.54552C0.821945 2.29585 0.681885 1.95741 0.681885 1.60455C0.681885 1.25169 0.821945 0.913254 1.0713 0.663587Z" fill="white"/>
<path d="M1.0713 0.663587L-1.75537 -2.1666L-1.75888 -2.16308L1.0713 0.663587ZM2.95323 0.663587L5.78166 -2.16484L5.7799 -2.1666L2.95323 0.663587ZM24.2581 21.9684L21.4297 24.7969L21.4796 24.8468L21.5312 24.8949L24.2581 21.9684ZM22.3762 23.8504L25.3026 21.1235L25.2545 21.0718L25.2046 21.0219L22.3762 23.8504ZM1.0713 2.54552L-1.75889 5.37218L-1.75713 5.37394L1.0713 2.54552ZM3.89797 3.49377C3.39763 3.99349 2.7194 4.27417 2.01227 4.27417V-3.72583C0.599404 -3.72583 -0.755694 -3.16503 -1.75536 -2.1666L3.89797 3.49377ZM2.01227 4.27417C1.30513 4.27417 0.626902 3.99349 0.126564 3.49377L5.7799 -2.1666C4.78023 -3.16503 3.42513 -3.72583 2.01227 -3.72583V4.27417ZM0.124804 3.49201L21.4297 24.7969L27.0865 19.14L5.78166 -2.16484L0.124804 3.49201ZM21.5312 24.8949C21.269 24.6506 21.0587 24.356 20.9129 24.0287L28.2203 20.7727C27.9289 20.1187 27.5088 19.5301 26.985 19.042L21.5312 24.8949ZM20.9129 24.0287C20.767 23.7013 20.6886 23.348 20.6823 22.9897L28.6811 22.8486C28.6684 22.1327 28.5117 21.4267 28.2203 20.7727L20.9129 24.0287ZM20.6823 22.9897C20.676 22.6314 20.7419 22.2755 20.8761 21.9432L28.2939 24.9394C28.562 24.2755 28.6937 23.5644 28.6811 22.8486L20.6823 22.9897ZM20.8761 21.9432C21.0103 21.611 21.2101 21.3091 21.4635 21.0557L27.1203 26.7126C27.6266 26.2063 28.0257 25.6033 28.2939 24.9394L20.8761 21.9432ZM21.4635 21.0557C21.7168 20.8024 22.0187 20.6026 22.3509 20.4684L25.3471 27.8861C26.011 27.618 26.614 27.2189 27.1203 26.7126L21.4635 21.0557ZM22.3509 20.4684C22.6832 20.3342 23.0391 20.2683 23.3974 20.2746L23.2563 28.2733C23.9721 28.286 24.6832 28.1543 25.3471 27.8861L22.3509 20.4684ZM23.3974 20.2746C23.7557 20.2809 24.109 20.3593 24.4364 20.5052L21.1804 27.8126C21.8344 28.104 22.5404 28.2607 23.2563 28.2733L23.3974 20.2746ZM24.4364 20.5052C24.7637 20.651 25.0583 20.8613 25.3026 21.1235L19.4497 26.5773C19.9378 27.1011 20.5264 27.5212 21.1804 27.8126L24.4364 20.5052ZM25.2046 21.0219L3.89973 -0.282911L-1.75713 5.37394L19.5477 26.6788L25.2046 21.0219ZM3.90149 -0.28115C4.4012 0.219187 4.68188 0.897414 4.68188 1.60455H-3.31812C-3.31812 3.01741 -2.75731 4.37251 -1.75888 5.37218L3.90149 -0.28115ZM4.68188 1.60455C4.68188 2.31169 4.4012 2.98992 3.90149 3.49025L-1.75888 -2.16308C-2.75731 -1.16341 -3.31812 0.191689 -3.31812 1.60455H4.68188Z" fill="white" mask="url(#path-1-inside-1_679_512)"/>
<mask id="path-3-inside-2_679_512" fill="white">
<path fill-rule="evenodd" clip-rule="evenodd" d="M24.258 0.663587C24.5074 0.913254 24.6474 1.25169 24.6474 1.60455C24.6474 1.95741 24.5074 2.29585 24.258 2.54552L2.95317 23.8504C2.70075 24.0856 2.36689 24.2136 2.02193 24.2075C1.67697 24.2014 1.34783 24.0617 1.10387 23.8177C0.859906 23.5738 0.720161 23.2446 0.714075 22.8997C0.707988 22.5547 0.836036 22.2209 1.07124 21.9684L22.3761 0.663587C22.6258 0.41423 22.9642 0.27417 23.3171 0.27417C23.6699 0.27417 24.0084 0.41423 24.258 0.663587Z"/>
</mask>
<path fill-rule="evenodd" clip-rule="evenodd" d="M24.258 0.663587C24.5074 0.913254 24.6474 1.25169 24.6474 1.60455C24.6474 1.95741 24.5074 2.29585 24.258 2.54552L2.95317 23.8504C2.70075 24.0856 2.36689 24.2136 2.02193 24.2075C1.67697 24.2014 1.34783 24.0617 1.10387 23.8177C0.859906 23.5738 0.720161 23.2446 0.714075 22.8997C0.707988 22.5547 0.836036 22.2209 1.07124 21.9684L22.3761 0.663587C22.6258 0.41423 22.9642 0.27417 23.3171 0.27417C23.6699 0.27417 24.0084 0.41423 24.258 0.663587Z" fill="white"/>
<path d="M24.258 0.663587L27.0882 -2.16308L27.0847 -2.1666L24.258 0.663587ZM24.258 2.54552L27.0865 5.37394L27.0882 5.37218L24.258 2.54552ZM2.95317 23.8504L5.68006 26.7768L5.73169 26.7287L5.7816 26.6788L2.95317 23.8504ZM1.07124 21.9684L-1.75719 19.14L-1.80709 19.1899L-1.8552 19.2415L1.07124 21.9684ZM22.3761 0.663587L19.5494 -2.1666L19.5477 -2.16484L22.3761 0.663587ZM21.4278 3.49025C20.9281 2.98991 20.6474 2.31168 20.6474 1.60455H28.6474C28.6474 0.191702 28.0866 -1.1634 27.0882 -2.16308L21.4278 3.49025ZM20.6474 1.60455C20.6474 0.897427 20.9281 0.219196 21.4278 -0.28115L27.0882 5.37218C28.0866 4.3725 28.6474 3.0174 28.6474 1.60455H20.6474ZM21.4296 -0.282911L0.124743 21.0219L5.7816 26.6788L27.0865 5.37394L21.4296 -0.282911ZM0.226281 20.9239C0.732138 20.4526 1.4012 20.196 2.09249 20.2082L1.95137 28.2069C3.33259 28.2313 4.66937 27.7186 5.68006 26.7768L0.226281 20.9239ZM2.09249 20.2082C2.7838 20.2204 3.44339 20.5004 3.9323 20.9893L-1.72456 26.6462C-0.747724 27.623 0.57013 28.1825 1.95137 28.2069L2.09249 20.2082ZM3.9323 20.9893C4.42121 21.4782 4.70125 22.1378 4.71345 22.8291L-3.2853 22.9702C-3.26093 24.3515 -2.70139 25.6693 -1.72456 26.6462L3.9323 20.9893ZM4.71345 22.8291C4.72565 23.5204 4.46904 24.1895 3.99769 24.6953L-1.8552 19.2415C-2.79697 20.2522 -3.30967 21.589 -3.2853 22.9702L4.71345 22.8291ZM3.89967 24.7969L25.2045 3.49201L19.5477 -2.16484L-1.75719 19.14L3.89967 24.7969ZM25.2028 3.49377C24.7024 3.99349 24.0242 4.27417 23.3171 4.27417V-3.72583C21.9042 -3.72583 20.5491 -3.16503 19.5494 -2.1666L25.2028 3.49377ZM23.3171 4.27417C22.6099 4.27417 21.9317 3.99349 21.4314 3.49377L27.0847 -2.1666C26.085 -3.16503 24.7299 -3.72583 23.3171 -3.72583V4.27417Z" fill="white" mask="url(#path-3-inside-2_679_512)"/>
</svg>
