<svg width="32" height="32" viewBox="0 0 32 32" fill="none" xmlns="http://www.w3.org/2000/svg">
<rect width="32" height="32" rx="16" fill="white"/>
<path d="M16.8224 8C17.7224 8.0024 18.1792 8.0072 18.5736 8.0184L18.7288 8.024C18.9079 8.0304 19.0847 8.0384 19.2983 8.048C20.1495 8.088 20.7303 8.22239 21.2399 8.41999C21.7679 8.62319 22.2127 8.89838 22.6575 9.34237C23.0644 9.74214 23.3792 10.2259 23.5798 10.7599C23.7774 11.2695 23.9118 11.8503 23.9518 12.7023C23.9614 12.9151 23.9694 13.0919 23.9758 13.2719L23.9806 13.4271C23.9926 13.8207 23.9974 14.2774 23.999 15.1774L23.9998 15.7742V16.8222C24.0018 17.4057 23.9956 17.9892 23.9814 18.5725L23.9766 18.7277C23.9702 18.9077 23.9622 19.0845 23.9526 19.2973C23.9126 20.1493 23.7766 20.7293 23.5798 21.2397C23.3792 21.7737 23.0644 22.2575 22.6575 22.6572C22.2577 23.0642 21.7739 23.379 21.2399 23.5796C20.7303 23.7772 20.1495 23.9116 19.2983 23.9516L18.7288 23.9756L18.5736 23.9804C18.1792 23.9916 17.7224 23.9972 16.8224 23.9988L16.2256 23.9996H15.1784C14.5947 24.0017 14.0109 23.9955 13.4273 23.9812L13.2721 23.9764C13.0822 23.9692 12.8923 23.961 12.7025 23.9516C11.8513 23.9116 11.2705 23.7772 10.7601 23.5796C10.2264 23.3789 9.74292 23.0641 9.34338 22.6572C8.93614 22.2575 8.62108 21.7738 8.4202 21.2397C8.22261 20.7301 8.08821 20.1493 8.04821 19.2973L8.02421 18.7277L8.02021 18.5725C8.00546 17.9892 7.9988 17.4057 8.00021 16.8222V15.1774C7.998 14.5939 8.00386 14.0104 8.01781 13.4271L8.02341 13.2719C8.02981 13.0919 8.03781 12.9151 8.04741 12.7023C8.08741 11.8503 8.22181 11.2703 8.4194 10.7599C8.62075 10.2257 8.93637 9.74191 9.34418 9.34237C9.74349 8.93562 10.2267 8.62084 10.7601 8.41999C11.2705 8.22239 11.8505 8.088 12.7025 8.048C12.9153 8.0384 13.0929 8.0304 13.2721 8.024L13.4273 8.0192C14.0106 8.00499 14.5941 7.99885 15.1776 8.0008L16.8224 8ZM16 11.9999C14.9392 11.9999 13.9218 12.4213 13.1717 13.1714C12.4215 13.9216 12.0001 14.939 12.0001 15.9998C12.0001 17.0606 12.4215 18.078 13.1717 18.8282C13.9218 19.5783 14.9392 19.9997 16 19.9997C17.0609 19.9997 18.0782 19.5783 18.8284 18.8282C19.5785 18.078 19.9999 17.0606 19.9999 15.9998C19.9999 14.939 19.5785 13.9216 18.8284 13.1714C18.0782 12.4213 17.0609 11.9999 16 11.9999ZM16 13.5999C16.3152 13.5998 16.6273 13.6618 16.9185 13.7824C17.2097 13.903 17.4743 14.0797 17.6971 14.3025C17.92 14.5253 18.0969 14.7899 18.2175 15.081C18.3382 15.3722 18.4003 15.6842 18.4004 15.9994C18.4004 16.3146 18.3384 16.6267 18.2178 16.9179C18.0973 17.209 17.9205 17.4736 17.6977 17.6965C17.4749 17.9194 17.2104 18.0963 16.9192 18.2169C16.6281 18.3376 16.316 18.3997 16.0008 18.3997C15.3643 18.3997 14.7539 18.1469 14.3038 17.6968C13.8537 17.2467 13.6009 16.6363 13.6009 15.9998C13.6009 15.3633 13.8537 14.7529 14.3038 14.3028C14.7539 13.8527 15.3643 13.5999 16.0008 13.5999M20.2007 10.7999C19.9355 10.7999 19.6812 10.9053 19.4936 11.0928C19.3061 11.2804 19.2007 11.5347 19.2007 11.7999C19.2007 12.0651 19.3061 12.3195 19.4936 12.507C19.6812 12.6945 19.9355 12.7999 20.2007 12.7999C20.4659 12.7999 20.7203 12.6945 20.9078 12.507C21.0953 12.3195 21.2007 12.0651 21.2007 11.7999C21.2007 11.5347 21.0953 11.2804 20.9078 11.0928C20.7203 10.9053 20.4659 10.7999 20.2007 10.7999Z" fill="#AA1F18"/>
</svg>
