<svg width="32" height="32" viewBox="0 0 32 32" fill="none" xmlns="http://www.w3.org/2000/svg">
<rect width="32" height="32" rx="16" fill="white"/>
<path d="M14 19.4286L19.19 16L14 12.5714V19.4286ZM25.56 10.48C25.69 11.0171 25.78 11.7371 25.84 12.6514C25.91 13.5657 25.94 14.3543 25.94 15.04L26 16C26 18.5029 25.84 20.3429 25.56 21.52C25.31 22.5486 24.73 23.2114 23.83 23.4971C23.36 23.6457 22.5 23.7486 21.18 23.8171C19.88 23.8971 18.69 23.9314 17.59 23.9314L16 24C11.81 24 9.2 23.8171 8.17 23.4971C7.27 23.2114 6.69 22.5486 6.44 21.52C6.31 20.9829 6.22 20.2629 6.16 19.3486C6.09 18.4343 6.06 17.6457 6.06 16.96L6 16C6 13.4971 6.16 11.6571 6.44 10.48C6.69 9.45143 7.27 8.78857 8.17 8.50286C8.64 8.35429 9.5 8.25143 10.82 8.18286C12.12 8.10286 13.31 8.06857 14.41 8.06857L16 8C20.19 8 22.8 8.18286 23.83 8.50286C24.73 8.78857 25.31 9.45143 25.56 10.48Z" fill="#AA1F18"/>
</svg>
